<?xml version="1.0" encoding="UTF-8" standalone="no"?>
<svg
   xmlns:dc="http://purl.org/dc/elements/1.1/"
   xmlns:cc="http://creativecommons.org/ns#"
   xmlns:rdf="http://www.w3.org/1999/02/22-rdf-syntax-ns#"
   xmlns:svg="http://www.w3.org/2000/svg"
   xmlns="http://www.w3.org/2000/svg"
   xmlns:sodipodi="http://sodipodi.sourceforge.net/DTD/sodipodi-0.dtd"
   xmlns:inkscape="http://www.inkscape.org/namespaces/inkscape"
   version="1.1"
   width="52.964001pt"
   height="53.73pt"
   viewBox="0 0 52.964001 53.73"
   id="svg4039"
   sodipodi:docname="esiwace.svg"
   inkscape:version="0.92.5 (2060ec1f9f, 2020-04-08)">
  <metadata
     id="metadata4045">
    <rdf:RDF>
      <cc:Work
         rdf:about="">
        <dc:format>image/svg+xml</dc:format>
        <dc:type
           rdf:resource="http://purl.org/dc/dcmitype/StillImage" />
      </cc:Work>
    </rdf:RDF>
  </metadata>
  <defs
     id="defs4043" />
  <sodipodi:namedview
     pagecolor="#ffffff"
     bordercolor="#666666"
     borderopacity="1"
     objecttolerance="10"
     gridtolerance="10"
     guidetolerance="10"
     inkscape:pageopacity="0"
     inkscape:pageshadow="2"
     inkscape:window-width="1848"
     inkscape:window-height="1136"
     id="namedview4041"
     showgrid="false"
     inkscape:zoom="4.2575"
     inkscape:cx="171.49896"
     inkscape:cy="35.76"
     inkscape:window-x="72"
     inkscape:window-y="27"
     inkscape:window-maximized="1"
     inkscape:current-layer="g4037" />
  <g
     id="g4037"
     transform="translate(-0.098,-10.59)">
    <path
       d="m 13.418,51.441 c -6.422,-11.16 -2.574,-25.41 8.586,-31.828 9.023,-5.191 20.062,-3.668 27.355,3 C 44.543,15.367 36.316,10.59 26.961,10.59 12.129,10.59 0.098,22.621 0.098,37.453 c 0,14.836 12.031,26.867 26.863,26.867 2.801,0 5.492,-0.429 8.035,-1.222 -8.535,0.496 -17.027,-3.735 -21.578,-11.657 z m 0,0"
       id="path4029"
       inkscape:connector-curvature="0"
       style="fill:#002652" />
    <path
       d="M 18.578,47.371 C 14.969,35.789 21.426,23.477 33,19.859 c 2.039,-0.636 4.094,-0.961 6.129,-0.996 -4.5,-0.726 -9.27,-0.062 -13.629,2.211 -10.754,5.602 -14.934,18.871 -9.324,29.625 3.976,7.629 11.808,11.949 19.863,11.813 C 28.078,61.215 21.141,55.574 18.578,47.371 Z m 0,0"
       id="path4031"
       inkscape:connector-curvature="0"
       style="fill:#007c9d" />
    <path
       d="m 25.477,34.629 c 6.351,-7.133 17.289,-7.77 24.429,-1.418 1.25,1.117 2.309,2.375 3.156,3.734 -1.335,-3.336 -3.718,-6.293 -7.019,-8.308 -8.145,-4.989 -18.805,-2.434 -23.789,5.722 -3.543,5.782 -3.277,12.817 0.082,18.2 -2.356,-5.895 -1.367,-12.868 3.141,-17.93 z m 0,0"
       id="path4033"
       inkscape:connector-curvature="0"
       style="fill:#00a8b3" />
    <path
       d="m 32.828,36.719 c 6.594,-1.5 13.16,2.625 14.66,9.219 0.266,1.164 0.356,2.316 0.285,3.449 0.602,-2.473 0.446,-5.153 -0.628,-7.68 -2.649,-6.223 -9.84,-9.129 -16.067,-6.48 -4.414,1.875 -7.152,6.046 -7.43,10.523 1.063,-4.352 4.5,-7.965 9.18,-9.031 z m 0,0"
       id="path4035"
       inkscape:connector-curvature="0"
       style="fill:#f99b00" />
  </g>
</svg>
